<svg width="29.000000" height="30.000000" viewBox="0 0 29 30" fill="none" xmlns="http://www.w3.org/2000/svg" xmlns:xlink="http://www.w3.org/1999/xlink">
	<desc>
			Created with Pixso.
	</desc>
	<defs/>
	<ellipse id="Ellipse 2" cx="14.496948" cy="14.510254" rx="14.496947" ry="14.510175" fill="#FFFFFF" fill-opacity="1.000000"/>
	<path id="Vector" d="M14.49 8.62C11.25 8.62 8.61 11.27 8.61 14.54C8.61 17.5 10.79 19.95 13.61 20.38L13.61 16.1L12.16 16.1L12.16 14.55L13.61 14.55L13.61 13.51C13.61 11.8 14.44 11.05 15.86 11.05C16.53 11.05 16.89 11.1 17.06 11.12L17.06 12.48L16.1 12.48C15.5 12.48 15.29 13.05 15.29 13.7L15.29 14.55L17.05 14.55L16.81 16.1L15.29 16.1L15.29 20.39C18.16 20 20.37 17.53 20.37 14.54C20.37 11.27 17.74 8.62 14.49 8.62Z" fill="#979797" fill-opacity="1.000000" fill-rule="nonzero"/>
</svg>
