<svg width="29.000000" height="30.000000" viewBox="0 0 29 30" fill="none" xmlns="http://www.w3.org/2000/svg" xmlns:xlink="http://www.w3.org/1999/xlink">
	<desc>
			Created with Pixso.
	</desc>
	<defs/>
	<ellipse id="Ellipse 3" cx="14.110718" cy="14.510254" rx="14.496947" ry="14.510175" fill="#FFFFFF" fill-opacity="1.000000"/>
	<path id="Vector" d="M11.98 9.41C10.34 9.41 9.01 10.74 9.01 12.38L9.01 16.63C9.01 18.27 10.35 19.6 11.98 19.6L16.23 19.6C17.87 19.6 19.2 18.27 19.2 16.63L19.2 12.38C19.2 10.74 17.87 9.41 16.23 9.41L11.98 9.41ZM17.16 11.04C17.39 11.04 17.57 11.22 17.57 11.45C17.57 11.67 17.39 11.85 17.16 11.85C16.94 11.85 16.75 11.67 16.75 11.45C16.75 11.22 16.94 11.04 17.16 11.04ZM14.11 11.85C15.57 11.85 16.75 13.04 16.75 14.51C16.75 15.97 15.57 17.16 14.11 17.16C12.64 17.16 11.46 15.97 11.46 14.51C11.46 13.04 12.64 11.85 14.11 11.85ZM14.11 12.67C13.09 12.67 12.27 13.49 12.27 14.51C12.27 15.52 13.09 16.34 14.11 16.34C15.12 16.34 15.94 15.52 15.94 14.51C15.94 13.49 15.12 12.67 14.11 12.67Z" fill="#979797" fill-opacity="1.000000" fill-rule="nonzero"/>
</svg>
