<svg width="29.000000" height="30.000000" viewBox="0 0 29 30" fill="none" xmlns="http://www.w3.org/2000/svg" xmlns:xlink="http://www.w3.org/1999/xlink">
	<desc>
			Created with Pixso.
	</desc>
	<defs/>
	<ellipse id="Ellipse 4" cx="13.724487" cy="14.510254" rx="14.496947" ry="14.510175" fill="#4238AF" fill-opacity="0.810000"/>
	<path id="Vector" d="M21.95 10.8C21.43 11.04 20.87 11.19 20.28 11.27C20.88 10.9 21.34 10.32 21.56 9.62C21 9.96 20.38 10.21 19.72 10.34C19.19 9.77 18.44 9.41 17.61 9.41C16.01 9.41 14.71 10.74 14.71 12.38C14.71 12.61 14.74 12.83 14.79 13.05C12.39 12.93 10.25 11.75 8.83 9.95C8.58 10.39 8.43 10.9 8.43 11.44C8.43 12.48 8.94 13.38 9.72 13.92C9.25 13.9 8.8 13.77 8.41 13.55C8.41 13.56 8.41 13.57 8.41 13.58C8.41 15.02 9.41 16.22 10.73 16.5C10.49 16.56 10.23 16.6 9.97 16.6C9.78 16.6 9.6 16.58 9.42 16.55C9.79 17.72 10.86 18.58 12.13 18.61C11.14 19.41 9.89 19.88 8.53 19.88C8.3 19.88 8.07 19.87 7.84 19.84C9.12 20.68 10.65 21.17 12.28 21.17C17.6 21.17 20.51 16.65 20.51 12.72C20.51 12.59 20.51 12.46 20.5 12.34C21.07 11.92 21.56 11.4 21.95 10.8Z" fill="#FFFFFF" fill-opacity="1.000000" fill-rule="nonzero"/>
</svg>
