<svg width="29.000000" height="30.000000" viewBox="0 0 29 30" fill="none" xmlns="http://www.w3.org/2000/svg" xmlns:xlink="http://www.w3.org/1999/xlink">
	<desc>
			Created with Pixso.
	</desc>
	<defs/>
	<ellipse id="Ellipse 5" cx="14.338013" cy="14.510254" rx="14.496947" ry="14.510175" fill="#FFFFFF" fill-opacity="1.000000"/>
	<path id="Vector" d="M22.15 11.16C22.01 10.46 21.35 9.95 20.59 9.79C19.45 9.57 17.34 9.41 15.06 9.41C12.78 9.41 10.64 9.57 9.5 9.79C8.74 9.95 8.09 10.43 7.95 11.16C7.81 11.96 7.67 13.07 7.67 14.51C7.67 15.94 7.81 17.05 7.98 17.85C8.12 18.55 8.78 19.06 9.54 19.22C10.75 19.44 12.82 19.6 15.1 19.6C17.38 19.6 19.45 19.44 20.66 19.22C21.42 19.06 22.08 18.58 22.22 17.85C22.35 17.05 22.53 15.91 22.56 14.51C22.49 13.07 22.32 11.96 22.15 11.16ZM13.2 16.74L13.2 12.27L17.41 14.51L13.2 16.74Z" fill="#979797" fill-opacity="1.000000" fill-rule="nonzero"/>
</svg>
