<svg width="30.000000" height="30.000000" viewBox="0 0 30 30" fill="none" xmlns="http://www.w3.org/2000/svg" xmlns:xlink="http://www.w3.org/1999/xlink">
	<desc>
			Created with Pixso.
	</desc>
	<defs/>
	<rect id="Rectangle 12" rx="6.000000" width="30.000000" height="30.000000" fill="#FFDECC" fill-opacity="1.000000"/>
	<path id="2" d="M10.71 21.5L18.45 21.5L18.45 19.89L13.04 19.89L13.04 19.8L15.02 17.87Q15.96 16.98 16.64 16.22Q17.32 15.46 17.68 14.67Q17.74 14.55 17.79 14.42Q18.05 13.74 18.05 12.97Q18.05 12.16 17.71 11.52Q17.67 11.45 17.62 11.37Q17.52 11.21 17.4 11.06Q17.01 10.59 16.41 10.3Q15.62 9.91 14.53 9.91Q13.67 9.91 13 10.11Q12.33 10.31 11.79 10.64Q11.25 10.98 10.77 11.39L11.78 12.6Q12.45 12.06 13.08 11.76Q13.17 11.72 13.27 11.68Q13.82 11.47 14.45 11.47Q15.13 11.47 15.58 11.79Q15.64 11.84 15.71 11.9Q15.77 11.96 15.83 12.03Q16.18 12.44 16.18 13.15Q16.18 13.7 16 14.19Q15.96 14.29 15.91 14.39Q15.64 14.96 15.09 15.6Q14.53 16.24 13.67 17.11L10.71 20.11L10.71 21.5Z" fill="#FF5C00" fill-opacity="1.000000" fill-rule="evenodd"/>
</svg>
