<svg width="60.000000" height="60.000000" viewBox="0 0 60 60" fill="none" xmlns="http://www.w3.org/2000/svg" xmlns:xlink="http://www.w3.org/1999/xlink">
	<desc>
			Created with Pixso.
	</desc>
	<defs/>
	<rect id="Rectangle 18" rx="7.000000" width="60.000000" height="60.000000" fill="#6156DC" fill-opacity="1.000000"/>
	<path id="Vector" d="M32.84 30.2C32.84 31.66 31.66 32.84 30.2 32.84C28.74 32.84 27.55 31.66 27.55 30.2C27.55 28.74 28.74 27.55 30.2 27.55C31.66 27.55 32.84 28.74 32.84 30.2Z" fill="#FFFFFF" fill-opacity="1.000000" fill-rule="nonzero"/>
	<path id="Vector" d="M30.2 13C20.67 13 13 20.67 13 30.2C13 39.73 20.67 47.4 30.2 47.4C39.73 47.4 47.4 39.73 47.4 30.2C47.4 20.67 39.73 13 30.2 13ZM20.93 22.26C20.93 21.46 21.46 20.93 22.26 20.93C23.05 20.93 23.58 21.46 23.58 22.26C23.58 23.05 23.05 23.58 22.26 23.58C21.46 23.58 20.93 23.05 20.93 22.26ZM30.33 36.95L23.05 38.93C22.13 39.2 21.2 38.27 21.46 37.34L23.45 30.07C24.38 26.89 26.76 24.38 29.93 23.58L37.21 21.6C38.14 21.33 39.06 22.26 38.8 23.18L36.81 30.46C36.02 33.51 33.51 36.02 30.33 36.95ZM38.14 39.46C37.34 39.46 36.81 38.93 36.81 38.14C36.81 37.34 37.34 36.81 38.14 36.81C38.93 36.81 39.46 37.34 39.46 38.14C39.46 38.93 38.93 39.46 38.14 39.46Z" fill="#FFFFFF" fill-opacity="1.000000" fill-rule="nonzero"/>
</svg>
