<svg width="60.000000" height="60.000000" viewBox="0 0 60 60" fill="none" xmlns="http://www.w3.org/2000/svg" xmlns:xlink="http://www.w3.org/1999/xlink">
	<desc>
			Created with Pixso.
	</desc>
	<defs/>
	<rect id="Rectangle 18" rx="7.000000" width="60.000000" height="60.000000" fill="#EF6010" fill-opacity="1.000000"/>
	<path id="Vector" d="M33.17 30.35C33.17 31.9 31.9 33.17 30.35 33.17C28.79 33.17 27.52 31.9 27.52 30.35C27.52 28.79 28.79 27.52 30.35 27.52C31.9 27.52 33.17 28.79 33.17 30.35Z" fill="#FFFFFF" fill-opacity="1.000000" fill-rule="nonzero"/>
	<path id="Vector" d="M30.35 12C20.18 12 12 20.18 12 30.35C12 40.51 20.18 48.7 30.35 48.7C40.51 48.7 48.7 40.51 48.7 30.35C48.7 20.18 40.51 12 30.35 12ZM20.46 21.88C20.46 21.03 21.03 20.46 21.88 20.46C22.72 20.46 23.29 21.03 23.29 21.88C23.29 22.72 22.72 23.29 21.88 23.29C21.03 23.29 20.46 22.72 20.46 21.88ZM30.49 37.54L22.72 39.66C21.73 39.94 20.75 38.96 21.03 37.97L23.15 30.2C24.13 26.82 26.68 24.13 30.06 23.29L37.83 21.17C38.81 20.89 39.8 21.88 39.52 22.86L37.4 30.63C36.56 33.87 33.87 36.56 30.49 37.54ZM38.81 40.23C37.97 40.23 37.4 39.66 37.4 38.81C37.4 37.97 37.97 37.4 38.81 37.4C39.66 37.4 40.23 37.97 40.23 38.81C40.23 39.66 39.66 40.23 38.81 40.23Z" fill="#FFFFFF" fill-opacity="1.000000" fill-rule="nonzero"/>
</svg>
