<svg width="60.000000" height="60.000000" viewBox="0 0 60 60" fill="none" xmlns="http://www.w3.org/2000/svg" xmlns:xlink="http://www.w3.org/1999/xlink">
	<desc>
			Created with Pixso.
	</desc>
	<defs/>
	<rect id="Rectangle 18" rx="7.000000" width="60.000000" height="60.000000" fill="#A73EED" fill-opacity="1.000000"/>
	<path id="Vector" d="M32.97 30.32C32.97 31.78 31.78 32.97 30.32 32.97C28.86 32.97 27.68 31.78 27.68 30.32C27.68 28.86 28.86 27.68 30.32 27.68C31.78 27.68 32.97 28.86 32.97 30.32Z" fill="#FFFFFF" fill-opacity="1.000000" fill-rule="nonzero"/>
	<path id="Vector" d="M30.32 13.12C20.8 13.12 13.12 20.8 13.12 30.32C13.12 39.85 20.8 47.53 30.32 47.53C39.85 47.53 47.53 39.85 47.53 30.32C47.53 20.8 39.85 13.12 30.32 13.12ZM21.06 22.38C21.06 21.59 21.59 21.06 22.38 21.06C23.18 21.06 23.71 21.59 23.71 22.38C23.71 23.18 23.18 23.71 22.38 23.71C21.59 23.71 21.06 23.18 21.06 22.38ZM30.46 37.07L23.18 39.06C22.25 39.32 21.32 38.4 21.59 37.47L23.57 30.19C24.5 27.01 26.88 24.5 30.06 23.71L37.34 21.72C38.26 21.46 39.19 22.38 38.92 23.31L36.94 30.59C36.15 33.63 33.63 36.15 30.46 37.07ZM38.26 39.59C37.47 39.59 36.94 39.06 36.94 38.26C36.94 37.47 37.47 36.94 38.26 36.94C39.06 36.94 39.59 37.47 39.59 38.26C39.59 39.06 39.06 39.59 38.26 39.59Z" fill="#FFFFFF" fill-opacity="1.000000" fill-rule="nonzero"/>
</svg>
