<svg width="41.000000" height="41.000000" viewBox="0 0 41 41" fill="none" xmlns="http://www.w3.org/2000/svg" xmlns:xlink="http://www.w3.org/1999/xlink">
	<desc>
			Created with Pixso.
	</desc>
	<defs/>
	<rect id="Rectangle 19" rx="7.000000" width="41.000000" height="41.000000" fill="#EF6010" fill-opacity="1.000000"/>
	<path id="Vector" d="M11.96 21.07L19.07 28.18C19.52 28.62 19.52 29.34 19.07 29.74C18.63 30.15 17.91 30.19 17.51 29.74L9.59 21.83C9.15 21.38 9.15 20.66 9.59 20.26L17.87 12.03C18.09 11.81 18.36 11.72 18.67 11.72C18.98 11.72 19.25 11.81 19.48 12.03C19.92 12.48 19.92 13.2 19.48 13.6L11.96 21.07Z" fill="#FFFFFF" fill-opacity="1.000000" fill-rule="nonzero"/>
	<path id="Vector" d="M29.63 22.01L17.55 22.01C16.93 22.01 16.43 21.52 16.43 20.89C16.43 20.26 16.93 19.77 17.55 19.77L29.63 19.77C30.25 19.77 30.74 20.26 30.74 20.89C30.74 21.52 30.25 22.01 29.63 22.01Z" fill="#FFFFFF" fill-opacity="1.000000" fill-rule="nonzero"/>
</svg>
