<svg width="41.000000" height="41.000000" viewBox="0 0 41 41" fill="none" xmlns="http://www.w3.org/2000/svg" xmlns:xlink="http://www.w3.org/1999/xlink">
	<desc>
			Created with Pixso.
	</desc>
	<defs/>
	<rect id="Rectangle 20" x="-0.166748" rx="7.000000" width="41.000000" height="41.000000" fill="#F3F5FF" fill-opacity="1.000000"/>
	<path id="Vector" d="M28.01 20.61L20.9 13.5C20.45 13.05 20.45 12.33 20.9 11.93C21.35 11.53 22.06 11.48 22.47 11.93L30.38 19.85C30.83 20.29 30.83 21.01 30.38 21.41L22.11 29.64C21.88 29.86 21.62 29.95 21.3 29.95C20.99 29.95 20.72 29.86 20.5 29.64C20.05 29.19 20.05 28.48 20.5 28.08L28.01 20.61Z" fill="#EF6010" fill-opacity="1.000000" fill-rule="nonzero"/>
	<path id="Vector" d="M10.35 19.67L22.42 19.67C23.05 19.67 23.54 20.16 23.54 20.78C23.54 21.41 23.05 21.9 22.42 21.9L10.35 21.9C9.72 21.9 9.23 21.41 9.23 20.78C9.23 20.16 9.72 19.67 10.35 19.67Z" fill="#EF6010" fill-opacity="1.000000" fill-rule="nonzero"/>
</svg>
