<svg width="28.000000" height="28.000000" viewBox="0 0 28 28" fill="none" xmlns="http://www.w3.org/2000/svg" xmlns:xlink="http://www.w3.org/1999/xlink">
	<desc>
			Created with Pixso.
	</desc>
	<defs/>
	<circle id="Ellipse 1" cx="14.000000" cy="13.999998" r="14.000000" fill="#C0C2F8" fill-opacity="0.220000"/>
	<path id="Vector" d="M13.94 8C12.04 8 10.25 8.91 9.13 10.45C8.01 11.99 7.7 13.97 8.29 15.78C8.88 17.6 10.29 19.02 12.11 19.6C13.92 20.19 15.9 19.88 17.44 18.76L20.4 21.72C20.64 21.96 20.98 22.05 21.3 21.96C21.63 21.88 21.88 21.63 21.96 21.3C22.05 20.98 21.96 20.64 21.72 20.4L18.76 17.44C19.62 16.25 20.02 14.78 19.86 13.32C19.71 11.85 19.02 10.5 17.92 9.52C16.83 8.53 15.41 7.99 13.94 8L13.94 8ZM13.94 18.03C12.86 18.03 11.82 17.6 11.05 16.83C10.29 16.07 9.86 15.03 9.86 13.95C9.86 12.86 10.29 11.82 11.05 11.06C11.82 10.29 12.86 9.86 13.94 9.86C15.02 9.86 16.06 10.29 16.83 11.06C17.59 11.82 18.02 12.86 18.02 13.95C18.02 15.03 17.59 16.07 16.83 16.83C16.06 17.6 15.02 18.03 13.94 18.03Z" fill="#FF5C00" fill-opacity="1.000000" fill-rule="nonzero"/>
</svg>
